# xmcd CD database file
#
# Track frame offsets:
#	150
#	14027
#	22757
#	44965
#	64067
#	79822
#	99217
#	115005
#	138445
#	153965
#	165025
#	184952
#	214035
#	230052
#	244492
#	267670
#
# Disc length: 3979 seconds
#
# Revision: 1
# Processed by: cddbd v1.5.1PL0 Copyright (c) Steve Scherf et al.
# Submitted via: CDex 1.51
#
DISCID=db0f8910
DTITLE=Coco d'Or - Coco d'Or
DYEAR=2004
DGENRE=Jazz
TTITLE0=Route 66
TTITLE1=Avalon
TTITLE2=And The Melody Still Lingers On (Night In Tunisia)
TTITLE3=Free
TTITLE4=Fly Me To The Moon
TTITLE5=Summertime
TTITLE6=The Face I Love
TTITLE7=The Girl From Ipanema
TTITLE8=It's Only A Paper Moon
TTITLE9=Orange Colored Sky
TTITLE10=The Very Thought Of You
TTITLE11=(i Can Recall)Spain
TTITLE12=You'd Be So Nice To Come Home To
TTITLE13=I Can't Give You Anything But Love
TTITLE14=You're Everything
TTITLE15=Calling You
EXTD=YEAR: 2004
EXTT0=
EXTT1=
EXTT2=
EXTT3=
EXTT4=
EXTT5=
EXTT6=
EXTT7=
EXTT8=
EXTT9=
EXTT10=
EXTT11=
EXTT12=
EXTT13=
EXTT14=
EXTT15=
PLAYORDER=
